<svg width="42" height="40" viewBox="0 0 42 40" fill="none" xmlns="http://www.w3.org/2000/svg">
<path d="M35.5628 25.7197C35.2522 25.8191 34.6109 25.7992 33.6689 25.66C34.9215 26.4255 35.1219 26.694 35.2021 26.8033C35.5628 27.3004 35.8133 27.8572 35.9536 28.4537C36.7953 27.9168 37.3565 26.9723 37.3565 25.9086C37.3565 25.5308 37.2863 25.1629 37.1561 24.8348C36.6851 25.2226 36.154 25.5308 35.5628 25.7197Z" fill="#1C2788"/>
<path d="M31.2432 17.0105C31.5438 17.6865 31.7743 18.4024 31.9346 19.148L32.155 18.4918L32.3755 17.8357L31.8043 17.4181L31.2432 17.0105Z" fill="#1C2788"/>
<path d="M31.3333 19.9136C31.2732 19.5457 31.203 19.1878 31.1129 18.8299C31.0427 18.6112 30.9826 18.3924 30.9124 18.1837C30.8623 18.0345 30.8022 17.8854 30.7521 17.7363C30.7421 17.7164 30.7421 17.7065 30.7321 17.6866C30.702 17.607 30.672 17.5374 30.6419 17.4579C30.6319 17.438 30.6218 17.4082 30.6118 17.3784C30.6018 17.3784 30.6018 17.3684 30.6018 17.3684C30.5717 17.2988 30.5417 17.2292 30.5116 17.1597C30.3613 16.8415 30.201 16.5333 30.0306 16.2251C30.0106 16.1853 29.9805 16.1456 29.9605 16.1058C29.9505 16.0959 29.9505 16.0859 29.9405 16.066C29.9405 16.066 29.9304 16.066 29.9304 16.0561C29.8302 15.8772 29.71 15.7081 29.5998 15.5292C29.4895 15.3801 29.3793 15.221 29.2691 15.0818C29.1689 14.9526 29.0687 14.8233 28.9785 14.704C28.8883 14.6046 28.7981 14.4952 28.7079 14.3958H28.6979C28.6177 14.2964 28.5276 14.197 28.4374 14.1075H28.4274C28.3272 13.9981 28.2169 13.8888 28.1067 13.7894C28.0666 13.7297 28.0165 13.6899 27.9564 13.6402H27.9464C27.9464 13.6402 27.9163 13.6005 27.8963 13.5905C27.8963 13.5806 27.8863 13.5706 27.8762 13.5706C27.8762 13.5706 27.8662 13.5507 27.8562 13.5706C27.8161 13.5209 27.776 13.4812 27.7259 13.4414H27.7159C27.7159 13.4414 27.7159 13.4314 27.7059 13.4215C27.7059 13.4215 27.6959 13.4116 27.6858 13.4116H27.6758V13.4016C27.6758 13.4016 27.6691 13.3917 27.6558 13.3718C27.6558 13.3718 27.6458 13.3718 27.6458 13.3619C27.6157 13.332 27.5756 13.3022 27.5456 13.2724C27.5155 13.2525 27.4955 13.2326 27.4654 13.2127C27.4253 13.173 27.3752 13.1431 27.3351 13.1034C27.3051 13.0835 27.275 13.0636 27.2349 13.0338H27.2249C27.2249 13.0338 27.2249 13.0238 27.2149 13.0139C27.1948 12.994 27.1648 12.9741 27.1347 12.9642C27.0646 12.9045 26.9944 12.8449 26.9143 12.7952C26.9042 12.7852 26.8942 12.7753 26.8742 12.7653C26.7439 12.6759 26.6137 12.5864 26.4834 12.5069C26.4834 12.5069 26.4032 12.4571 26.3732 12.4273C26.3732 12.4174 26.3531 12.4174 26.3431 12.4074H26.3231C26.3231 12.4074 26.313 12.4074 26.313 12.3875H26.293C26.2329 12.3478 26.1828 12.318 26.1327 12.2881C26.0725 12.2484 26.0124 12.2185 25.9623 12.1887C25.9523 12.1788 25.9423 12.1788 25.9423 12.1788C25.9323 12.1688 25.9122 12.1589 25.9022 12.1489C25.8822 12.139 25.8521 12.1291 25.8321 12.1092H25.822L25.812 12.0992C25.802 12.0992 25.802 12.0893 25.792 12.0893C25.7719 12.0893 25.7619 12.0893 25.7519 12.0694C25.7318 12.0595 25.7218 12.0495 25.7018 12.0396C25.6517 12.0197 25.6116 11.9899 25.5615 11.97C25.5314 11.9501 25.5114 11.9402 25.4813 11.9302C25.4613 11.9203 25.4513 11.9103 25.4312 11.9103C25.4312 11.9103 25.3911 11.8805 25.3711 11.8706C25.2909 11.8308 25.2208 11.801 25.1406 11.7712C25.1306 11.7513 25.1106 11.7513 25.0905 11.7513C24.84 11.622 24.5795 11.5127 24.3089 11.4232C24.2588 11.4033 24.2188 11.3934 24.1687 11.3735C24.1586 11.3635 24.1386 11.3635 24.1286 11.3536H24.1085C24.0083 11.3238 23.9081 11.284 23.7979 11.2542C23.5474 11.1746 23.2969 11.105 23.0363 11.0454C23.0263 11.0355 23.0163 11.0355 23.0163 11.0355C22.4151 10.8963 21.7938 10.8068 21.1625 10.777C20.9621 10.767 20.7517 10.7571 20.5412 10.7571C19.7396 10.7571 18.958 10.8466 18.2065 11.0056C17.8257 11.0852 17.4449 11.1945 17.0741 11.3138C16.8437 11.3934 16.6232 11.4729 16.4128 11.5624C16.3126 11.6021 16.2124 11.6419 16.1122 11.6916C16.022 11.7214 15.9418 11.7612 15.8617 11.8109C15.8316 11.8109 15.8015 11.8308 15.7715 11.8507C15.6813 11.8905 15.5811 11.9402 15.4809 11.9998C15.4508 11.9998 15.4208 12.0197 15.3907 12.0396H15.3807C15.3807 12.0396 15.3707 12.0495 15.3606 12.0495C15.3606 12.0495 15.3506 12.0495 15.3506 12.0595C15.3506 12.0595 15.3439 12.0628 15.3306 12.0694C15.3306 12.0694 15.3005 12.0794 15.2905 12.0992C15.2404 12.1191 15.1903 12.1489 15.1402 12.1788H15.1302C15.04 12.2285 14.9598 12.2782 14.8596 12.3279L14.8496 12.3478C14.8496 12.3478 14.8195 12.3577 14.7995 12.3776C14.6893 12.4472 14.579 12.5168 14.4588 12.5864C14.4588 12.5864 14.4554 12.5864 14.4488 12.5864C14.3886 12.646 14.3285 12.6858 14.2584 12.7256C14.2584 12.7256 14.1882 12.7852 14.1482 12.8151C14.1281 12.825 14.1081 12.8349 14.098 12.8548C14.098 12.8548 14.078 12.8648 14.068 12.8747C14.058 12.8747 14.0479 12.8846 14.0379 12.8846C14.0279 12.8946 14.0279 12.9045 14.0279 12.9045L14.0179 12.9145C14.0079 12.9344 13.9978 12.9443 13.9878 12.9443C13.9778 12.9443 13.9778 12.9443 13.9678 12.9542C13.9477 12.9741 13.9277 12.994 13.9177 12.994C13.8776 13.0238 13.8275 13.0537 13.7874 13.0934C13.7173 13.1431 13.6471 13.2028 13.567 13.2624C13.567 13.2624 13.5569 13.2624 13.5469 13.2624C13.5269 13.2923 13.5068 13.3121 13.4768 13.332C13.4066 13.3917 13.3265 13.4613 13.2563 13.5309C13.2463 13.5309 13.2363 13.5309 13.2363 13.5507L13.2162 13.5706H13.2062C13.2062 13.5706 13.2029 13.5739 13.1962 13.5806C13.1962 13.5806 13.1561 13.6104 13.1361 13.6402C13.1261 13.6402 13.1261 13.6502 13.1261 13.6502H13.116C13.116 13.6502 13.096 13.6701 13.086 13.6899C13.076 13.68 13.076 13.6899 13.076 13.6899C13.0559 13.7098 13.0359 13.7198 13.0259 13.7496C13.0259 13.7496 13.0225 13.7496 13.0158 13.7496H13.0058C13.0058 13.7496 12.9958 13.7794 12.9858 13.7794C12.9758 13.7993 12.9657 13.8092 12.9557 13.8092C12.9156 13.8391 12.8755 13.8788 12.8355 13.9285H12.8254C12.8254 13.9285 12.8054 13.9484 12.7954 13.9584C12.7954 13.9584 12.7854 13.9683 12.7854 13.9783C12.7854 13.9882 12.7854 13.9882 12.7653 13.9981C12.7553 13.9981 12.7453 14.018 12.7353 14.028C12.7252 14.0379 12.7152 14.0478 12.7052 14.0578C12.6751 14.0777 12.6551 14.0976 12.6451 14.1274C12.625 14.1274 12.615 14.1572 12.595 14.1771C12.585 14.187 12.5749 14.2069 12.5549 14.2169C12.5549 14.2169 12.5449 14.2169 12.5449 14.2268H12.5349C12.5349 14.2268 12.5148 14.2467 12.5048 14.2666C12.4647 14.3063 12.4246 14.3461 12.3946 14.3958C12.3745 14.4157 12.3545 14.4455 12.3244 14.4753C12.3244 14.4753 12.3044 14.4753 12.3044 14.4853C12.1441 14.6642 11.9837 14.8631 11.8334 15.0619C11.7933 15.1116 11.7533 15.1713 11.7132 15.2309C11.5228 15.4894 11.3424 15.7578 11.1821 16.0263C10.8414 16.5731 10.5608 17.1497 10.3404 17.7562C10.3404 17.7562 10.337 17.7628 10.3303 17.776C10.0698 18.462 9.87942 19.1779 9.76919 19.9136C9.72911 20.1323 9.69905 20.3411 9.67901 20.5697C9.64895 20.9077 9.62891 21.2458 9.62891 21.5937V21.713C9.62891 21.9715 9.64895 22.23 9.66899 22.4786C9.67901 22.5979 9.68903 22.7072 9.70907 22.8166C9.70907 22.9458 9.72911 23.0651 9.74915 23.1844C9.75917 23.2938 9.77921 23.4131 9.80928 23.5225C9.79926 23.5324 9.80928 23.5523 9.80928 23.5622C9.80928 23.5622 9.8193 23.5921 9.8193 23.602C9.83934 23.7312 9.8694 23.8505 9.89946 23.9798C9.89946 24.0196 9.89946 24.0593 9.9195 24.0991C9.92952 24.119 9.92952 24.1389 9.92952 24.1488H9.93954C9.93954 24.1488 9.93954 24.1786 9.94956 24.1886C9.97962 24.2979 10.0097 24.4172 10.0397 24.5266C10.0397 24.5365 10.0397 24.5465 10.0498 24.5564C10.0498 24.5664 10.0598 24.5763 10.0598 24.5862C10.0598 24.5862 10.0598 24.5896 10.0598 24.5962C10.0598 24.5962 10.0798 24.6658 10.0898 24.6956C10.0898 24.7055 10.0898 24.7155 10.0898 24.7254V24.7553C10.1099 24.805 10.1199 24.8547 10.14 24.8944V24.9143V24.9243C10.15 24.9541 10.16 24.974 10.16 24.9839C10.16 24.9839 10.16 25.0038 10.17 25.0137C10.18 25.0436 10.1901 25.0635 10.1901 25.0734C10.1901 25.0933 10.1901 25.1132 10.2101 25.133C10.2101 25.1529 10.2201 25.1728 10.2301 25.1927C10.2402 25.2026 10.2402 25.2126 10.2402 25.2225C10.2502 25.2325 10.2502 25.2424 10.2502 25.2523C10.2502 25.2623 10.2502 25.2722 10.2502 25.2822C10.2602 25.312 10.2702 25.3418 10.2802 25.3717C10.2802 25.3717 10.2903 25.4015 10.3003 25.4114C10.3103 25.4214 10.3103 25.4313 10.3103 25.4313C10.3103 25.4711 10.3404 25.5009 10.3504 25.5307C10.3704 25.5904 10.3905 25.65 10.4205 25.6997C10.4205 25.7196 10.4305 25.7296 10.4305 25.7494C10.4305 25.7693 10.4506 25.7892 10.4606 25.8091H10.4706C10.4706 25.8091 10.4806 25.8588 10.4907 25.8787C10.4907 25.8787 10.4907 25.8853 10.4907 25.8986C10.4907 25.8986 10.5007 25.9185 10.5107 25.9284C10.5308 25.998 10.5608 26.0676 10.6009 26.1272C10.6009 26.1272 10.6009 26.1305 10.6009 26.1372C10.6009 26.1372 10.6209 26.1968 10.641 26.2267C10.641 26.2267 10.661 26.2863 10.671 26.2962C10.671 26.3062 10.671 26.3161 10.6911 26.3261C10.7011 26.3559 10.7111 26.3758 10.7312 26.4056V26.4255C10.7312 26.4255 10.7512 26.4752 10.7612 26.4951C10.7712 26.5249 10.7913 26.5547 10.8113 26.5846C10.8213 26.6144 10.8314 26.6442 10.8514 26.6641C10.8514 26.684 10.8714 26.7039 10.8815 26.7138C10.8815 26.7337 10.8915 26.7436 10.9015 26.7536C10.9616 26.8729 11.0218 26.9822 11.0819 27.0817H11.0919C11.132 27.1512 11.1721 27.2208 11.2121 27.2904C11.2322 27.3103 11.2422 27.3401 11.2622 27.36C11.2923 27.4197 11.3224 27.4694 11.3524 27.5092C11.3825 27.5589 11.4126 27.6086 11.4426 27.6483C11.4727 27.6981 11.5027 27.7378 11.5328 27.7776H11.5428C11.613 27.8869 11.6831 27.9864 11.7533 28.0758C11.9136 28.2946 12.0839 28.4934 12.2543 28.6922C12.3144 28.7618 12.3745 28.8215 12.4246 28.8911C12.4447 28.911 12.4647 28.9209 12.4747 28.9408C12.5148 28.9806 12.5449 29.0203 12.585 29.0501C12.585 29.0501 12.5883 29.0535 12.595 29.0601C12.6551 29.1297 12.7152 29.1893 12.7854 29.2589C12.8254 29.2987 12.8655 29.3385 12.9056 29.3782C12.9156 29.3882 12.9257 29.3981 12.9457 29.418L12.9557 29.4279C13.0158 29.4776 13.076 29.5373 13.1461 29.6069H13.1561C13.2062 29.6566 13.2663 29.7163 13.3365 29.766L13.3666 29.7958C13.4267 29.8455 13.4968 29.9051 13.567 29.9648C13.7072 30.0742 13.8375 30.1835 13.9878 30.2929C14.0479 30.3326 14.1081 30.3824 14.1782 30.4321C14.7895 30.8596 15.4508 31.2374 16.1523 31.5356H16.1623C16.1623 31.5356 16.2324 31.5654 16.2625 31.5853C16.5831 31.7146 16.9038 31.8339 17.2244 31.9333C17.5752 32.0427 17.9259 32.1321 18.2966 32.2117H18.3067C18.4269 32.2316 18.5572 32.2614 18.6774 32.2713C18.7476 32.2912 18.8077 32.3011 18.8778 32.3111C18.8979 32.3111 18.9279 32.321 18.948 32.3111C18.958 32.321 18.958 32.3111 18.958 32.3111C18.9981 32.331 19.0382 32.331 19.0782 32.331C19.0782 32.331 19.0849 32.331 19.0983 32.331C19.2486 32.3608 19.3989 32.3807 19.5592 32.3906C19.6294 32.3906 19.6995 32.3906 19.7697 32.3906C19.8999 32.4006 20.0402 32.4105 20.1805 32.4105C20.2506 32.4204 20.3208 32.4204 20.3909 32.4204H20.7617C20.8418 32.4204 20.912 32.4105 20.9922 32.4105C21.1324 32.4006 21.2627 32.3906 21.393 32.3807C21.5333 32.3707 21.6735 32.3608 21.8038 32.3409H21.8138C21.8138 32.3409 21.894 32.331 21.9241 32.321C21.9942 32.321 22.0643 32.3111 22.1245 32.2912C22.1846 32.2912 22.2447 32.2813 22.3048 32.2713C22.4451 32.2514 22.5854 32.2216 22.7257 32.2017C22.8459 32.1719 22.9662 32.1421 23.0965 32.1122C23.3269 32.0625 23.5574 31.9929 23.7778 31.9234C24.1486 31.814 24.4993 31.6748 24.84 31.5257C26.313 30.8993 27.6157 29.9549 28.6578 28.7917C28.9184 28.5133 29.1589 28.215 29.3793 27.8969C29.6298 27.5589 29.8603 27.2109 30.0607 26.8331C30.1308 26.7237 30.191 26.5945 30.2511 26.4752C30.2912 26.4155 30.3212 26.3559 30.3513 26.2863V26.2664C30.3513 26.2664 30.3713 26.2366 30.3814 26.2167C30.3814 26.2167 30.3914 26.2167 30.3814 26.2068C30.3814 26.2068 30.3914 26.2068 30.3814 26.1968C30.4114 26.1571 30.4415 26.1074 30.4615 26.0477C30.5517 25.8588 30.6319 25.66 30.712 25.4611C30.712 25.4512 30.7221 25.4512 30.712 25.4412H30.7221C30.7521 25.3518 30.7822 25.2623 30.8223 25.1828C30.8323 25.143 30.8423 25.1132 30.8523 25.0734C30.8623 25.0436 30.8724 25.0038 30.8924 24.974C30.8924 24.964 30.8924 24.9541 30.8924 24.9441C30.9024 24.9143 30.9124 24.8746 30.9225 24.8447C30.9225 24.8248 30.9325 24.805 30.9425 24.7851C30.9425 24.7751 30.9425 24.7652 30.9425 24.7553C30.9625 24.6658 30.9926 24.5664 31.0227 24.4669C31.0427 24.3973 31.0628 24.3278 31.0828 24.2482V24.2283C31.0828 24.2283 31.0828 24.2184 31.0928 24.2085C31.1129 24.1289 31.1329 24.0494 31.1529 23.9698C31.1529 23.9301 31.163 23.8903 31.173 23.8505C31.183 23.8108 31.193 23.771 31.203 23.7412C31.203 23.7114 31.203 23.6915 31.2131 23.6716V23.6418C31.2131 23.6418 31.2231 23.6119 31.2231 23.602C31.2431 23.5225 31.2531 23.4529 31.2632 23.3733C31.2832 23.2839 31.2932 23.2043 31.2932 23.1148C31.3133 23.0452 31.3233 22.9657 31.3333 22.8862C31.3433 22.8365 31.3433 22.7868 31.3433 22.7371C31.3433 22.7371 31.3533 22.7371 31.3533 22.7271C31.3834 22.4289 31.4035 22.1207 31.4135 21.8125V21.5838C31.4135 21.2756 31.4034 20.9674 31.3734 20.6691C31.3533 20.4107 31.3233 20.1522 31.2832 19.9036L31.3333 19.9136ZM28.9484 19.2773C29.0987 19.8141 28.9284 20.3808 28.5276 20.7188L25.1206 23.2242C25.0004 23.3336 24.9402 23.5722 24.9903 23.771L25.8421 27.2308C25.9824 27.7676 25.822 28.3343 25.4212 28.6724C25.2208 28.8414 24.9703 28.9408 24.7198 28.9507H24.6897C24.4492 28.9507 24.2188 28.8712 24.0183 28.7221H24.0083L23.357 28.1653L22.6656 27.5787C22.1646 27.1612 21.2928 26.4056 21.0322 26.167C20.7416 25.8986 20.3709 25.8986 20.0502 26.1769C19.8097 26.3857 19.0782 27.0121 18.4169 27.5787L17.1443 28.6724C16.9138 28.8613 16.6533 28.9507 16.3727 28.9507C16.1222 28.9408 15.8817 28.8414 15.6813 28.6624C15.2805 28.3244 15.1201 27.7577 15.2604 27.2208L16.2825 23.771C16.3426 23.5523 16.2925 23.3236 16.1623 23.2242L12.595 20.7487C12.1641 20.3808 12.0038 19.8141 12.1441 19.2773C12.1541 19.2176 12.1741 19.1679 12.2042 19.1083C12.3645 18.7205 12.7152 18.3328 13.2864 18.3328H17.7154C17.8257 18.3328 17.9559 18.2334 18.0161 18.0246L19.3789 14.197C19.5392 13.6402 19.9901 13.2823 20.5212 13.2823C21.0523 13.2823 21.4932 13.6402 21.6535 14.2069L23.0664 17.9848C23.1365 18.2334 23.2768 18.3328 23.3871 18.3328H27.8061C28.3773 18.3328 28.728 18.7205 28.8883 19.1083C28.9184 19.1679 28.9284 19.2176 28.9484 19.2773Z" fill="#1C2788"/>
<path d="M30.2314 9.30554C30.7825 9.12659 31.3637 9.06694 31.9449 9.1067C31.8948 8.97746 31.8447 8.8681 31.7846 8.7488C31.4138 8.02304 30.7825 7.48618 30.001 7.23763C29.7003 7.13821 29.3797 7.0885 29.059 7.0885H29.029C29.1993 7.5856 29.2995 8.10257 29.2995 8.62949C29.2995 8.99734 29.029 9.65351 28.6582 10.3991C29.3997 9.77281 29.9308 9.40496 30.2314 9.30554Z" fill="#1C2788"/>
<path d="M27.0653 31.5356H27.7667L27.9872 30.8794L28.1676 30.3425C27.6465 30.7899 27.0853 31.1975 26.4941 31.5356H27.0653Z" fill="#1C2788"/>
<path d="M21.7243 10.091L21.1231 9.65355L20.602 9.27576L20.0609 9.66349L19.4697 10.081C19.8204 10.0512 20.1812 10.0313 20.5419 10.0313C20.9427 10.0313 21.3335 10.0512 21.7243 10.091Z" fill="#1C2788"/>
<path d="M21.1231 36.9042C21.043 36.7948 20.8425 36.5164 20.562 35.1345C20.3816 35.9398 20.1812 36.6258 19.9708 36.9042C19.6401 37.3516 19.2393 37.7194 18.7783 38.0276C18.9587 38.1767 19.1691 38.3159 19.3896 38.4253C20.1211 38.7931 20.9528 38.8627 21.7344 38.6142C22.035 38.5148 22.3055 38.3756 22.556 38.1966C21.9648 37.8387 21.4939 37.4112 21.1231 36.9042Z" fill="#1C2788"/>
<path d="M12.9668 30.7998L13.1972 31.4958V31.5355H14.5901C13.9488 31.1577 13.3375 30.7104 12.7764 30.2133L12.9668 30.7998Z" fill="#1C2788"/>
<path d="M12.4954 10.4289C12.1146 9.51425 11.9343 8.9078 11.9343 8.5996C11.9343 8.11245 12.0244 7.6253 12.1748 7.16797C12.0545 7.16797 11.9443 7.16797 11.8441 7.19779C11.0525 7.3171 10.361 7.73466 9.87004 8.36099L9.83997 8.4107C9.68967 8.60954 9.56942 8.81832 9.48926 9.03704C10.0003 9.03704 10.5013 9.10664 10.9923 9.26571C11.1326 9.30547 11.4633 9.41483 12.4954 10.4289Z" fill="#1C2788"/>
<path d="M9.2982 17.3484L8.74707 17.7461L8.94748 18.3525L9.17795 19.0684C9.33828 18.3327 9.57877 17.6168 9.87939 16.9408L9.2982 17.3484Z" fill="#1C2788"/>
<path d="M5.5915 25.6499C5.13056 25.5008 4.7097 25.2721 4.3189 24.9938C4.25878 25.1727 4.20867 25.3517 4.17861 25.5406C4.05837 26.3459 4.24875 27.1412 4.72974 27.7974C4.87003 27.9863 5.03035 28.1553 5.2007 28.2945C5.35101 27.7278 5.5915 27.2009 5.94222 26.7336C6.13261 26.4751 6.66369 26.1172 7.51544 25.6798C6.04242 25.7891 5.72177 25.6798 5.5915 25.6499Z" fill="#1C2788"/>
<path d="M33.1077 18.1837L32.1858 20.9475C32.1958 21.1663 32.2058 21.385 32.2058 21.6037C32.2058 21.7926 32.2058 21.9914 32.1858 22.1803C32.1858 22.2798 32.1858 22.3792 32.1658 22.4786C32.1658 22.5382 32.1658 22.6078 32.1557 22.6774C32.1557 22.7073 32.1457 22.747 32.1457 22.7868C32.1357 22.8862 32.1257 22.9956 32.1056 23.1049C32.0956 23.2242 32.0756 23.3535 32.0555 23.4728C32.0255 23.6219 32.0054 23.7611 31.9654 23.9102C31.9654 23.95 31.9553 23.9898 31.9453 24.0295C33.4885 24.3576 34.9014 24.5664 35.1819 24.5067C35.6529 24.3576 36.0738 24.0991 36.4646 23.7611L36.6449 23.5821L36.8153 23.4131C36.8153 23.4131 36.8253 23.3933 36.8353 23.3833C36.8854 23.3336 36.9255 23.2839 36.9656 23.2342H36.9756C37.0257 23.1646 37.0758 23.1049 37.1359 23.0353C37.186 22.9757 37.2261 22.9061 37.2762 22.8464C38.7492 20.8382 39.4707 17.6667 39.7713 16.0363L33.1077 18.1837Z" fill="white"/>
<path d="M24.8813 32.3308C24.5406 32.47 24.1899 32.5893 23.8392 32.6887C23.749 32.7185 23.6488 32.7484 23.5586 32.7683C23.4584 32.7981 23.3582 32.8279 23.258 32.8378C23.1878 32.8677 23.1177 32.8776 23.0375 32.8876C23.0074 32.9074 22.9774 32.9074 22.9473 32.9174C22.8471 32.9373 22.7369 32.9571 22.6267 32.977C22.5064 33.0069 22.3762 33.0267 22.2459 33.0466C22.0054 33.0765 21.7649 33.1063 21.5244 33.1162C21.7449 34.6174 22.0154 35.9397 22.1657 36.1684C22.4864 36.6058 22.9273 36.9637 23.4383 37.2222C23.5085 37.2719 23.5886 37.3117 23.6688 37.3415C23.7089 37.3713 23.759 37.3912 23.7991 37.4012C23.8291 37.4211 23.8592 37.431 23.8993 37.4509C23.9694 37.4807 24.0396 37.5105 24.1197 37.5404C24.1999 37.5702 24.2801 37.6 24.3702 37.6298C24.4404 37.6497 24.5205 37.6696 24.6007 37.6994C26.9555 38.3954 30.102 38.0971 31.6952 37.8684L27.6469 32.3308H24.8813Z" fill="white"/>
<path d="M34.8512 29.6268C34.8512 29.5472 34.8412 29.4776 34.8312 29.3981V29.3782C34.8211 29.2987 34.8111 29.2191 34.8011 29.1496C34.7911 29.07 34.771 28.9905 34.751 28.911C34.6508 28.4039 34.4604 27.9366 34.1698 27.539C33.9995 27.3203 32.8171 26.5845 31.4042 25.8091C31.3541 25.9483 31.2939 26.0775 31.2338 26.2068C31.1737 26.3559 31.1136 26.4951 31.0434 26.6243C30.9933 26.7436 30.9332 26.853 30.8731 26.9623C30.833 27.0518 30.7829 27.1413 30.7228 27.2208C30.7228 27.2407 30.7127 27.2507 30.6927 27.2705C30.6526 27.36 30.6125 27.4296 30.5624 27.4992C30.5224 27.5887 30.4723 27.6682 30.4121 27.7478C30.1215 28.2051 29.8009 28.6425 29.4502 29.0501L28.5684 31.6748L32.6968 37.3118C33.3882 35.9498 34.8512 32.7684 34.8713 30.1338C34.8713 30.0543 34.8713 29.9648 34.8612 29.8853C34.8612 29.7958 34.8612 29.7162 34.8512 29.6268Z" fill="white"/>
<path d="M28.4783 13.1232C28.5785 13.2226 28.6887 13.322 28.7889 13.4215C28.8691 13.501 28.9493 13.5905 29.0294 13.67C29.0395 13.67 29.0395 13.68 29.0395 13.68C29.1096 13.7595 29.1797 13.8291 29.2399 13.8987C29.31 13.9782 29.3802 14.0577 29.4403 14.1373C29.5104 14.2069 29.5705 14.2864 29.6307 14.3659C29.9012 14.694 30.1517 15.032 30.3722 15.39L32.747 17.1099L39.561 14.9227C38.4788 13.8589 35.8835 11.4729 33.3483 10.6477C33.2681 10.6179 33.1879 10.588 33.0978 10.5681C33.0176 10.5483 32.9374 10.5184 32.8573 10.4985C32.7771 10.4787 32.6869 10.4588 32.6068 10.4488C32.5767 10.4389 32.5466 10.429 32.5166 10.429C32.4665 10.419 32.4164 10.4091 32.3663 10.4091C32.2761 10.3892 32.1959 10.3792 32.1057 10.3693C31.5947 10.3196 31.0937 10.3594 30.6227 10.5085C30.3622 10.598 29.2198 11.5524 27.9873 12.7056C28.1577 12.8349 28.318 12.984 28.4783 13.1232Z" fill="white"/>
<path d="M24.8306 10.8465C24.9208 10.8763 25.011 10.9161 25.1012 10.9459C25.1713 10.9758 25.2315 11.0056 25.3016 11.0453C25.3317 11.0553 25.3617 11.0652 25.3818 11.0752C25.482 11.1149 25.5822 11.1647 25.6724 11.2144C25.7726 11.2641 25.8828 11.3138 25.983 11.3635C26.1032 11.4331 26.2335 11.5027 26.3537 11.5723C26.4038 11.6021 26.4439 11.622 26.494 11.6518C27.3358 10.2401 28.0171 8.8979 28.0372 8.60959C28.0372 8.19203 27.947 7.77447 27.7967 7.36685C27.7666 7.28732 27.7266 7.20778 27.6965 7.12825C27.6564 7.05865 27.6264 6.97912 27.5863 6.90952C27.5562 6.83993 27.5161 6.78028 27.4861 6.71069C27.4861 6.6908 27.456 6.67092 27.446 6.65104C27.4159 6.59138 27.3859 6.54167 27.3458 6.49197C27.3057 6.42237 27.2656 6.35278 27.2155 6.28319C25.7124 4.09597 22.546 2.29649 21.123 1.56079V8.66924L23.528 10.419C23.9689 10.5284 24.4098 10.6775 24.8306 10.8465Z" fill="white"/>
<path d="M19.2294 33.0963C19.1092 33.0765 18.9889 33.0665 18.8687 33.0466H18.8587C18.7485 33.0267 18.6282 33.0069 18.518 32.987C18.4278 32.977 18.3276 32.9571 18.2374 32.9373C18.1973 32.9273 18.1472 32.9174 18.1071 32.9074C18.047 32.8975 17.9869 32.8876 17.9368 32.8677C17.8366 32.8478 17.7464 32.8279 17.6562 32.7981C17.1652 32.6788 16.6842 32.5197 16.2233 32.3308H13.2572L9.24902 37.7988C11.5137 38.1568 14.6902 38.3158 16.9147 37.5304C16.9949 37.5105 17.065 37.4807 17.1352 37.4409C17.2053 37.4211 17.2754 37.3912 17.3456 37.3614C17.3456 37.3614 17.3523 37.3548 17.3656 37.3415H17.3756C17.4458 37.3216 17.5159 37.2819 17.5861 37.252C17.6662 37.2123 17.7364 37.1725 17.8065 37.1228C17.8867 37.093 17.9568 37.0532 18.017 37.0035C18.3977 36.7748 18.7184 36.4865 18.9689 36.1485C19.1192 35.9298 19.4198 34.6274 19.6904 33.1262C19.5501 33.1262 19.3998 33.1063 19.2595 33.0963H19.2395H19.2294Z" fill="white"/>
<path d="M15.1517 11.3435C15.262 11.2839 15.3722 11.2342 15.4824 11.1745H15.4924C15.5525 11.1447 15.6027 11.1248 15.6528 11.1049C15.6928 11.085 15.7429 11.0652 15.783 11.0453C15.8732 10.9956 15.9634 10.9558 16.0636 10.916C16.1538 10.8862 16.254 10.8464 16.3442 10.8166C16.4243 10.7769 16.5045 10.747 16.5947 10.7172C16.9354 10.588 17.2961 10.4786 17.6569 10.3991C17.6569 10.3991 17.6569 10.3891 17.6669 10.3891L19.9916 8.72882V1.64026C17.9575 2.68416 15.3521 4.39416 14.0495 6.29306C13.9994 6.36265 13.9493 6.43225 13.9092 6.50184C13.8591 6.57143 13.819 6.64103 13.7789 6.71062C13.7589 6.74045 13.7388 6.78021 13.7188 6.81004C13.6988 6.84981 13.6787 6.88957 13.6587 6.92934C13.6186 6.99893 13.5885 7.06853 13.5585 7.14806C13.5184 7.21766 13.4883 7.29719 13.4583 7.37673C13.308 7.7744 13.2178 8.18202 13.2178 8.58964C13.2178 8.85807 13.7889 10.2599 14.4804 11.7213C14.7008 11.5921 14.9213 11.4628 15.1517 11.3435Z" fill="white"/>
<path d="M11.5134 28.901C11.313 28.6624 11.1226 28.4039 10.9423 28.1454C10.8821 28.0659 10.832 27.9963 10.7819 27.9167C10.7318 27.8372 10.6817 27.7577 10.6216 27.6682C10.5815 27.5986 10.5314 27.5191 10.4813 27.4395C10.4813 27.4395 10.4212 27.3401 10.4012 27.2904C10.3711 27.2407 10.341 27.191 10.321 27.1512C10.2609 27.0418 10.2108 26.9424 10.1506 26.8331C10.0204 26.5746 9.89012 26.3062 9.77989 26.0377C8.35698 26.6541 7.16454 27.2705 6.98417 27.4793C6.67354 27.8969 6.47313 28.3939 6.37292 28.9308C6.35288 29.0103 6.33284 29.0899 6.33284 29.1694C6.3128 29.2589 6.30278 29.3384 6.29276 29.4279C6.29276 29.4577 6.28274 29.4776 6.29276 29.4975C6.28274 29.5571 6.28274 29.6168 6.27272 29.6665C6.27272 29.756 6.2627 29.8355 6.2627 29.925V30.1835C6.30278 32.7087 7.6355 35.7012 8.34696 37.113L12.3852 31.5952L11.5134 28.901Z" fill="white"/>
<path d="M9.1991 24.2383C9.13898 24.0195 9.09889 23.8108 9.05881 23.592C9.03877 23.4827 9.01873 23.3634 9.00871 23.254C8.98867 23.1446 8.97865 23.0452 8.96863 22.9359C8.95861 22.8862 8.95861 22.8364 8.94859 22.7967C8.94859 22.747 8.94859 22.6973 8.94859 22.6476C8.93857 22.5481 8.92855 22.4487 8.92855 22.3592C8.91852 22.2598 8.9085 22.1703 8.91852 22.0809C8.89848 21.9218 8.89848 21.7627 8.89848 21.6037C8.89848 21.3551 8.9085 21.1165 8.92855 20.868L8.01668 18.0544L7.84633 17.5275L7.81627 17.438L7.9766 17.3286L8.42752 17.0006L10.7623 15.3303C10.9827 15.0022 11.2132 14.6841 11.4537 14.3759C11.5138 14.2964 11.574 14.2268 11.6441 14.1572C11.7042 14.0876 11.7643 14.0081 11.8245 13.9385C11.8846 13.8788 11.9347 13.8192 11.9948 13.7496C12.0048 13.7496 12.0048 13.7396 12.0149 13.7297C12.095 13.6501 12.1652 13.5706 12.2453 13.4911C12.3355 13.4115 12.4157 13.3221 12.5059 13.2326H12.5159C12.6762 13.0835 12.8365 12.9443 12.9969 12.7951C11.9147 11.5822 10.8825 10.5682 10.612 10.4687C10.1911 10.3296 9.74021 10.2898 9.26924 10.3196C9.18908 10.3296 9.10891 10.3296 9.01873 10.3395C8.93857 10.3494 8.84838 10.3693 8.76822 10.3793C8.68805 10.3991 8.60789 10.4091 8.52773 10.429C8.49766 10.4389 8.4676 10.4389 8.43754 10.4489C8.38744 10.4588 8.32732 10.4787 8.27721 10.4886C8.19705 10.5085 8.11689 10.5383 8.03672 10.5582C5.49152 11.3337 2.82606 13.7297 1.70377 14.8233C1.55346 14.9724 1.43321 15.0917 1.34303 15.1812H1.33301C1.34303 15.2607 1.35305 15.3502 1.37309 15.4397C1.39313 15.5789 1.42319 15.7479 1.45325 15.9368C1.74385 17.6368 2.50541 21.0568 4.11871 23.0452C4.16881 23.1148 4.22893 23.1745 4.27903 23.2341C4.31912 23.2739 4.34918 23.3037 4.38926 23.3435C4.39928 23.3634 4.42934 23.3932 4.44938 23.4131C4.49949 23.4727 4.55961 23.5224 4.61973 23.5821C4.67985 23.6417 4.75 23.7014 4.81012 23.7511C4.88026 23.8108 4.94039 23.8704 5.01053 23.9102C5.32117 24.1488 5.65184 24.3178 6.00256 24.4371C6.26309 24.5067 7.64592 24.4172 9.20912 24.2383H9.1991Z" fill="white"/>
<path d="M24.219 28.3244C24.3793 28.4635 24.5496 28.5133 24.71 28.5232C24.9004 28.5133 25.0507 28.4238 25.1408 28.3442C25.4114 28.1056 25.5216 27.7179 25.4114 27.3401L24.5697 23.8903C24.4695 23.5224 24.5797 23.1247 24.8402 22.8861L28.2472 20.3907C28.5779 20.1124 28.6079 19.6749 28.5278 19.3866C28.4476 19.0983 28.2171 18.7603 27.8063 18.7603H23.3873C23.0466 18.7603 22.756 18.5117 22.6558 18.1339L21.2429 14.3361C21.1226 13.9484 20.8521 13.7197 20.5214 13.7197C20.1907 13.7197 19.9101 13.9583 19.7999 14.3262L18.4371 18.1339C18.3369 18.5117 18.0463 18.7603 17.7157 18.7603H13.2866C12.8858 18.7603 12.6453 19.0983 12.5651 19.3866C12.495 19.6749 12.515 20.1124 12.8457 20.3907L16.423 22.8762C16.7036 23.0949 16.8038 23.4926 16.7036 23.8803L15.6815 27.3302C15.5813 27.708 15.6915 28.1056 15.9621 28.3343C16.0923 28.4437 16.2426 28.5033 16.393 28.5133C16.5533 28.5133 16.7136 28.4635 16.8539 28.3343L18.1265 27.2506C18.7979 26.6839 19.5193 26.0576 19.7699 25.8488C20.0104 25.64 20.2909 25.5307 20.5615 25.5307C20.832 25.5307 21.1026 25.64 21.3331 25.8488C21.5836 26.0874 22.4554 26.8331 22.9464 27.2506L24.219 28.3244Z" fill="white"/>
<path d="M41.034 14.6345C40.9739 14.5848 37.1761 10.3793 33.2982 9.33545C33.2281 8.94771 33.0978 8.55998 32.9074 8.19213C32.3863 7.17806 31.4945 6.43242 30.4023 6.07451C29.751 5.86573 29.0896 5.81602 28.4583 5.9055C26.3841 2.50537 21.1634 0.169028 20.8728 0.0397833C20.7225 -0.019868 20.5421 -0.019868 20.3718 0.0497252C20.1012 0.169028 14.8104 2.5352 12.7462 5.94526C12.3854 5.91544 12.0147 5.92538 11.6439 5.98503C10.5016 6.16398 9.50955 6.77044 8.83818 7.69503C8.49748 8.15236 8.25699 8.66934 8.12672 9.2062C4.37905 10.0612 0.67147 13.9882 0.180466 14.5251C0.0501996 14.6544 -0.00992344 14.8432 9.70623e-05 15.0321C9.70623e-05 15.0719 0.0201381 15.2409 0.06022 15.4895C0.26063 16.9708 1.06227 21.564 3.34694 24.119C3.15655 24.4968 3.02629 24.9044 2.95614 25.3419C2.7858 26.4653 3.05635 27.5987 3.73774 28.5233L3.88805 28.7321C4.19869 29.1099 4.56944 29.4181 4.98028 29.6666C4.79992 33.0667 6.82406 37.0733 7.48541 38.2763L7.46537 38.3061L7.52549 38.3459C7.57559 38.4453 7.61568 38.5149 7.64574 38.5646C7.73592 38.7435 7.89625 38.8628 8.07662 38.8927C8.14676 38.9026 8.24697 38.9225 8.37723 38.9523C9.75004 39.2009 14.4096 39.9167 17.6262 38.6143C17.9568 38.9821 18.3677 39.3003 18.8386 39.5289L19.0591 39.6383C19.6102 39.8769 20.1914 39.9962 20.7826 39.9962C21.2335 39.9962 21.6945 39.9266 22.1153 39.7874C22.7667 39.5787 23.3278 39.2307 23.7888 38.7734C24.9812 39.2009 26.4642 39.4096 28.2379 39.4096C30.1017 39.4096 31.7651 39.171 32.5367 39.0319C32.8273 38.9821 32.9876 38.9523 32.9976 38.9523C33.178 38.9126 33.3383 38.7932 33.4185 38.6441C33.7892 38.0178 36.3144 33.5042 36.134 29.7461C37.577 29.0701 38.579 27.5987 38.579 25.9086C38.579 25.1828 38.3986 24.4968 38.068 23.8904C40.5631 20.8382 41.1543 15.4199 41.1843 15.1216C41.1843 14.9427 41.1342 14.7737 41.024 14.6345H41.034ZM32.697 37.3119L28.5685 31.6749L29.4503 29.0502C29.8011 28.6426 30.1217 28.2051 30.4123 27.7478C30.4724 27.6683 30.5225 27.5887 30.5626 27.4993C30.6127 27.4297 30.6528 27.3601 30.6929 27.2805C30.6929 27.2805 30.7229 27.2408 30.7229 27.2209C30.7831 27.1414 30.8332 27.0519 30.8733 26.9624C30.9334 26.853 30.9935 26.7437 31.0436 26.6244C31.1137 26.4951 31.1739 26.356 31.234 26.2168C31.2941 26.0776 31.3542 25.9483 31.4043 25.8091C32.8172 26.5846 33.9996 27.3203 34.17 27.539C34.4606 27.9367 34.651 28.404 34.7512 28.911C34.7712 28.9906 34.7913 29.0701 34.8013 29.1496C34.8013 29.2192 34.8213 29.2987 34.8313 29.3783V29.3982C34.8414 29.4777 34.8514 29.5473 34.8514 29.6268C34.8614 29.7163 34.8614 29.7958 34.8614 29.8853C34.8714 29.9649 34.8714 30.0543 34.8714 30.1339C34.8514 32.7685 33.3884 35.9499 32.697 37.3119ZM17.3556 37.3417C17.3556 37.3417 17.3456 37.3616 17.3356 37.3616C17.2654 37.3914 17.1953 37.4213 17.1251 37.4412C17.055 37.4809 16.9848 37.5107 16.9047 37.5306C14.6801 38.316 11.5036 38.157 9.239 37.7991L13.2472 32.331H16.2133C16.6742 32.5199 17.1552 32.679 17.6462 32.7983C17.7364 32.8281 17.8266 32.848 17.9268 32.8679C17.9769 32.8878 18.037 32.8977 18.0971 32.9077C18.1372 32.9176 18.1873 32.9275 18.2274 32.9375C18.3176 32.9574 18.4178 32.9772 18.508 32.9872C18.6182 33.0071 18.7384 33.027 18.8487 33.0468H18.8587C18.9789 33.0667 19.0992 33.0767 19.2194 33.0965H19.2395C19.3797 33.1065 19.53 33.1264 19.6703 33.1264C19.3998 34.6276 19.0992 35.93 18.9489 36.1487C18.6983 36.4867 18.3777 36.775 17.9969 37.0037C17.9368 37.0534 17.8666 37.0932 17.7865 37.123C17.7163 37.1727 17.6462 37.2125 17.566 37.2523C17.4959 37.2821 17.4257 37.3219 17.3556 37.3417ZM1.36288 15.4398C1.34284 15.3503 1.33282 15.2608 1.3228 15.1912H1.33282C1.42301 15.0918 1.54325 14.9725 1.69356 14.8234C2.81586 13.7298 5.48131 11.3338 8.02652 10.5583C8.10668 10.5384 8.18684 10.5086 8.26701 10.4887C8.31711 10.4788 8.37723 10.4589 8.42734 10.4489C8.4574 10.439 8.48746 10.439 8.51752 10.4291C8.59768 10.4092 8.67785 10.3992 8.75801 10.3793C8.83818 10.3694 8.92836 10.3495 9.00852 10.3396C9.09871 10.3396 9.17887 10.3396 9.25904 10.3197C9.73 10.2899 10.1809 10.3296 10.6018 10.4688C10.8723 10.5682 11.9044 11.5823 12.9867 12.7952C12.8263 12.9443 12.666 13.0835 12.5057 13.2327H12.4957C12.4055 13.3221 12.3253 13.4116 12.2351 13.4912C12.155 13.5707 12.0848 13.6502 12.0047 13.7298C11.9946 13.7397 11.9946 13.7496 11.9846 13.7496C11.9245 13.8192 11.8744 13.8789 11.8143 13.9385C11.7541 14.0081 11.694 14.0877 11.6339 14.1573C11.5638 14.2269 11.5036 14.2964 11.4435 14.376C11.203 14.6842 10.9725 15.0023 10.7521 15.3304L8.41731 17.0006L7.96639 17.3287L7.80607 17.4381L7.83613 17.5276L8.00647 18.0545L8.91834 20.868C8.8983 21.1166 8.88828 21.3552 8.88828 21.6037C8.88828 21.7628 8.88828 21.9219 8.90832 22.0809C8.8983 22.1704 8.90832 22.2599 8.91834 22.3593C8.91834 22.4488 8.92836 22.5482 8.93838 22.6476C8.93838 22.6973 8.93838 22.747 8.93838 22.7968C8.9484 22.8365 8.9484 22.8862 8.95842 22.9359C8.96844 23.0453 8.97846 23.1447 8.9985 23.2541C9.00852 23.3634 9.02857 23.4827 9.04861 23.5921C9.08869 23.8108 9.12877 24.0196 9.18889 24.2383C7.6257 24.4173 6.24287 24.5068 5.98233 24.4372C5.63162 24.3179 5.30094 24.1489 4.99031 23.9102C4.92016 23.8705 4.86004 23.8108 4.7899 23.7512C4.72977 23.7015 4.65963 23.6418 4.59951 23.5822C4.53938 23.5225 4.47926 23.4728 4.42916 23.4132C4.40912 23.3933 4.37905 23.3634 4.36903 23.3436C4.32895 23.3038 4.29889 23.274 4.25881 23.2342C4.20871 23.1745 4.14858 23.1149 4.09848 23.0453C2.48518 21.0569 1.72362 17.6369 1.43303 15.9369C1.40297 15.748 1.37291 15.5789 1.35286 15.4398H1.36288ZM13.7783 6.71079C13.8184 6.64119 13.8584 6.5716 13.9085 6.50201C13.9486 6.43242 13.9987 6.36282 14.0488 6.29323C15.3515 4.39433 17.9568 2.68432 19.991 1.64043V8.72899L17.6662 10.3893L17.6562 10.3992C17.2955 10.4788 16.9347 10.5881 16.594 10.7174C16.5039 10.7472 16.4237 10.777 16.3435 10.8168C16.2533 10.8466 16.1531 10.8864 16.063 10.9162C15.9628 10.956 15.8726 10.9957 15.7824 11.0355C15.7824 11.0355 15.6922 11.0852 15.6521 11.1051C15.602 11.125 15.5519 11.1449 15.4918 11.1747H15.4818C15.3715 11.2343 15.2613 11.2841 15.1511 11.3437C14.9206 11.463 14.7002 11.5923 14.4797 11.7215C13.7883 10.26 13.2171 8.85824 13.2171 8.5898C13.2171 8.18219 13.3073 7.77457 13.4576 7.37689C13.4877 7.29736 13.5177 7.21782 13.5578 7.14823C13.5879 7.0687 13.618 6.9991 13.658 6.92951C13.6781 6.88974 13.6981 6.84997 13.7182 6.81021C13.7382 6.78038 13.7582 6.74061 13.7783 6.71079ZM27.346 6.49207C27.3861 6.54178 27.4162 6.59149 27.4462 6.64119C27.4462 6.64119 27.4763 6.6909 27.4863 6.71079C27.5164 6.78038 27.5565 6.84003 27.5865 6.90963C27.6266 6.97922 27.6567 7.05875 27.6968 7.12835C27.7268 7.20788 27.7669 7.28742 27.797 7.36695C27.9473 7.77457 28.0375 8.19213 28.0375 8.60969C28.0174 8.898 27.336 10.2402 26.4943 11.6519C26.4442 11.6221 26.4041 11.6022 26.354 11.5724C26.2338 11.5028 26.1035 11.4332 25.9832 11.3636C25.883 11.3139 25.7728 11.2642 25.6726 11.2145C25.5824 11.1648 25.4822 11.115 25.382 11.0753C25.362 11.0653 25.3319 11.0554 25.3019 11.0454C25.2317 11.0057 25.1716 10.9759 25.1014 10.946C25.0113 10.9162 24.9211 10.8764 24.8309 10.8466C24.41 10.6776 23.9691 10.5285 23.5282 10.4191L21.1233 8.66934V1.56089C22.5462 2.29659 25.7127 4.09607 27.2158 6.28329C27.2659 6.35288 27.306 6.42247 27.346 6.49207ZM29.0595 7.08858C29.3802 7.08858 29.7009 7.13829 30.0015 7.23771C30.7831 7.48626 31.4144 8.02312 31.7851 8.74887C31.8452 8.86818 31.8953 8.97754 31.9454 9.10678C31.3643 9.06701 30.7831 9.12667 30.2319 9.30562C29.9313 9.40504 29.4002 9.77289 28.6587 10.3992C29.0295 9.65359 29.3 8.99742 29.3 8.62957C29.3 8.10265 29.1998 7.58567 29.0295 7.08858H29.0595ZM37.3565 25.9086C37.3565 26.9723 36.7954 27.9168 35.9536 28.4537C35.8134 27.8572 35.5628 27.3004 35.2021 26.8033C35.1219 26.694 34.9215 26.4255 33.669 25.66C34.6109 25.7992 35.2522 25.8191 35.5628 25.7197C36.1541 25.5308 36.6851 25.2226 37.1561 24.8348C37.2864 25.1629 37.3565 25.5308 37.3565 25.9086ZM27.9873 30.8795L27.7669 31.5357H26.4943C27.0855 31.1976 27.6467 30.79 28.1677 30.3426L27.9873 30.8795ZM19.5902 32.3907C19.4298 32.3807 19.2795 32.3608 19.1292 32.331C19.1292 32.331 19.1225 32.331 19.1092 32.331C19.1092 32.331 19.029 32.331 18.9889 32.3111C18.9889 32.3111 18.9889 32.3211 18.9789 32.3111C18.9589 32.3211 18.9288 32.3111 18.9088 32.3111C18.8386 32.3012 18.7785 32.2913 18.7084 32.2714C18.5881 32.2614 18.4579 32.2316 18.3376 32.2117H18.3276C17.9568 32.1322 17.6061 32.0427 17.2554 31.9333C16.9347 31.8339 16.6141 31.7146 16.2934 31.5854C16.2634 31.5655 16.2233 31.5556 16.1932 31.5357H16.1832C15.4818 31.2374 14.8204 30.8596 14.2092 30.4321C14.139 30.3824 14.0789 30.3327 14.0188 30.2929C13.8685 30.1836 13.7382 30.0742 13.5979 29.9649C13.5278 29.9052 13.4576 29.8456 13.3975 29.7958L13.3674 29.766C13.2973 29.7163 13.2372 29.6567 13.1871 29.6169H13.1771C13.1069 29.5374 13.0468 29.4777 12.9867 29.428C12.9867 29.428 12.9766 29.4081 12.9766 29.4181C12.9566 29.3982 12.9466 29.3882 12.9366 29.3783C12.8965 29.3385 12.8564 29.2987 12.8163 29.259C12.7462 29.1894 12.686 29.1297 12.6259 29.0601C12.6259 29.0601 12.6226 29.0568 12.6159 29.0502C12.6159 29.0502 12.5458 28.9806 12.5057 28.9408C12.4856 28.921 12.4656 28.911 12.4556 28.8911C12.4055 28.8215 12.3454 28.7619 12.2852 28.6923C12.1149 28.4935 11.9445 28.2946 11.7842 28.0759C11.7141 27.9864 11.6439 27.887 11.5738 27.7876H11.5638C11.5337 27.7379 11.5036 27.6981 11.4736 27.6484C11.4435 27.6086 11.4134 27.5589 11.3834 27.5092C11.3533 27.4694 11.3233 27.4197 11.2932 27.37C11.2932 27.37 11.2631 27.3203 11.2431 27.2905C11.203 27.2209 11.1629 27.1513 11.1228 27.0817H11.1128C11.0527 26.9823 10.9926 26.8729 10.9325 26.7636C10.9325 26.7636 10.9124 26.7337 10.9124 26.7139C10.9024 26.7039 10.8924 26.684 10.8824 26.6641C10.8623 26.6443 10.8523 26.6144 10.8423 26.5846C10.8222 26.5548 10.8022 26.525 10.7922 26.4951C10.7822 26.4753 10.7721 26.4554 10.7621 26.4255V26.4057C10.7421 26.3758 10.732 26.356 10.722 26.3261C10.712 26.3162 10.712 26.3062 10.702 26.2963C10.692 26.2864 10.6819 26.2665 10.6719 26.2366C10.6719 26.2366 10.6419 26.1671 10.6318 26.1372C10.6318 26.1372 10.6318 26.1339 10.6318 26.1273C10.5918 26.0676 10.5617 25.998 10.5417 25.9285C10.5316 25.9185 10.5216 25.9086 10.5216 25.8986C10.5216 25.8986 10.5216 25.8887 10.5216 25.8787C10.5116 25.8589 10.5016 25.839 10.5016 25.8191H10.4916C10.4815 25.7992 10.4715 25.7793 10.4615 25.7594C10.4615 25.7396 10.4515 25.7296 10.4515 25.7097C10.4214 25.66 10.4014 25.6004 10.3813 25.5407C10.3613 25.5109 10.3513 25.4711 10.3413 25.4413C10.3413 25.4413 10.3379 25.4347 10.3312 25.4214C10.3312 25.4214 10.3212 25.4015 10.3112 25.3916C10.3112 25.3916 10.2911 25.322 10.2811 25.2922C10.2811 25.2822 10.2811 25.2723 10.2811 25.2623C10.2711 25.2623 10.2711 25.2425 10.2711 25.2325C10.2611 25.2226 10.2611 25.2126 10.2611 25.2027C10.2511 25.1828 10.241 25.1629 10.241 25.143C10.231 25.1232 10.221 25.1033 10.221 25.0834C10.211 25.0635 10.201 25.0436 10.201 25.0237C10.201 25.0237 10.1976 25.0171 10.1909 25.0039C10.1909 25.0039 10.1709 24.9541 10.1709 24.9343V24.9243V24.9044C10.1709 24.9044 10.1408 24.815 10.1208 24.7652V24.7354C10.1208 24.7354 10.1208 24.7155 10.1208 24.7056C10.1008 24.6758 10.1008 24.6459 10.0907 24.6062C10.0907 24.6062 10.0907 24.6029 10.0907 24.5962C10.0907 24.5962 10.0807 24.5764 10.0807 24.5664C10.0707 24.5565 10.0707 24.5465 10.0707 24.5366C10.0306 24.4272 10.0006 24.3179 9.98051 24.1986C9.97049 24.1886 9.97049 24.1787 9.97049 24.1588H9.96047C9.96047 24.1588 9.96047 24.129 9.95045 24.1091C9.94043 24.0693 9.93041 24.0295 9.93041 23.9898C9.90035 23.8605 9.87029 23.7412 9.85025 23.612C9.85025 23.602 9.84023 23.5921 9.84023 23.5822C9.84023 23.5822 9.8302 23.5424 9.84023 23.5325C9.81016 23.4231 9.79012 23.3038 9.7801 23.1944C9.76006 23.0751 9.74002 22.9558 9.74002 22.8266C9.71998 22.7172 9.70996 22.6079 9.69994 22.4886C9.6799 22.24 9.65986 21.9815 9.65986 21.723V21.6037C9.65986 21.2558 9.6799 20.9177 9.70996 20.5797C9.73 20.3511 9.76006 20.1423 9.80014 19.9236C9.91037 19.1879 10.1008 18.472 10.3613 17.786C10.3613 17.786 10.3646 17.7794 10.3713 17.7662C10.5918 17.1597 10.8723 16.5831 11.213 16.0363C11.3734 15.7678 11.5537 15.4994 11.7441 15.2409C11.7842 15.1813 11.8243 15.1216 11.8644 15.0719C12.0147 14.8731 12.175 14.6742 12.3353 14.4953C12.3353 14.4853 12.3554 14.4853 12.3554 14.4853C12.3654 14.4555 12.3955 14.4257 12.4255 14.4058C12.4556 14.3561 12.4957 14.3163 12.5357 14.2766C12.5458 14.2567 12.5558 14.2467 12.5658 14.2368H12.5758L12.5858 14.2269C12.5959 14.207 12.6059 14.197 12.6259 14.1871C12.6259 14.1672 12.646 14.1473 12.676 14.1374C12.686 14.1075 12.7061 14.0877 12.7361 14.0678C12.7462 14.0578 12.7562 14.0479 12.7662 14.038C12.7762 14.028 12.7863 14.0181 12.7963 14.0081C12.7963 13.9982 12.8163 13.9882 12.8163 13.9882C12.8163 13.9783 12.8263 13.9783 12.8263 13.9783L12.8564 13.9485C12.8564 13.9385 12.8664 13.9385 12.8664 13.9385C12.9065 13.8888 12.9466 13.8491 12.9867 13.8192C12.9967 13.7994 13.0067 13.7894 13.0167 13.7894C13.0167 13.7795 13.0267 13.7695 13.0368 13.7695C13.0368 13.7695 13.0401 13.7695 13.0468 13.7695C13.0468 13.7695 13.0468 13.7596 13.0568 13.7695C13.0568 13.7397 13.0869 13.7298 13.1069 13.7099C13.1069 13.7099 13.1069 13.6999 13.1169 13.7099C13.1269 13.69 13.137 13.68 13.147 13.68H13.157C13.157 13.68 13.157 13.6602 13.167 13.6602C13.1871 13.6303 13.2071 13.6204 13.2272 13.6005C13.2272 13.6005 13.2305 13.5972 13.2372 13.5906C13.2372 13.5906 13.2372 13.5906 13.2472 13.5906C13.2472 13.5906 13.2539 13.5839 13.2672 13.5707C13.2672 13.5707 13.2773 13.5508 13.2873 13.5508C13.3574 13.4812 13.4376 13.4116 13.5077 13.352C13.5378 13.3321 13.5578 13.3122 13.5779 13.2824C13.5879 13.2824 13.5979 13.2824 13.5979 13.2824C13.6781 13.2227 13.7482 13.1631 13.8184 13.1134C13.8584 13.0736 13.9085 13.0438 13.9486 13.0139C13.9587 12.9941 13.9787 12.9841 13.9987 12.9742C13.9987 12.9742 14.0054 12.9709 14.0188 12.9642C14.0188 12.9642 14.0388 12.9443 14.0488 12.9344C14.0488 12.9344 14.0488 12.9245 14.0589 12.9344V12.9245C14.0589 12.9245 14.0589 12.9245 14.0689 12.9046C14.0789 12.9046 14.0889 12.8946 14.0989 12.8946C14.109 12.8847 14.119 12.8748 14.129 12.8748C14.139 12.8549 14.1591 12.8449 14.1791 12.835C14.2192 12.8052 14.2492 12.7753 14.2893 12.7555C14.3595 12.7057 14.4196 12.666 14.4797 12.6063C14.4797 12.6063 14.4831 12.6063 14.4897 12.6063C14.61 12.5367 14.7202 12.4671 14.8304 12.3975C14.8505 12.3777 14.8705 12.3677 14.8805 12.3677C14.8805 12.3677 14.8906 12.3578 14.8906 12.3478C14.9908 12.2981 15.0709 12.2484 15.1611 12.2086H15.1711C15.1711 12.2086 15.2713 12.1391 15.3214 12.1192C15.3315 12.0993 15.3515 12.0893 15.3615 12.0893C15.3615 12.0893 15.3682 12.086 15.3816 12.0794L15.3916 12.0695C15.4016 12.0695 15.4016 12.0595 15.4116 12.0695L15.4216 12.0595C15.4517 12.0396 15.4818 12.0198 15.5118 12.0198C15.612 11.9601 15.7122 11.9104 15.8024 11.8706C15.8325 11.8507 15.8625 11.8309 15.8926 11.8309C15.9728 11.7811 16.0529 11.7414 16.1431 11.7116C16.2433 11.6618 16.3435 11.6221 16.4437 11.5823C16.6542 11.4928 16.8746 11.4133 17.1051 11.3338C17.4758 11.2145 17.8566 11.1051 18.2374 11.0256C18.9889 10.8665 19.7705 10.777 20.5722 10.777C20.7826 10.777 20.993 10.787 21.1935 10.7969C21.8247 10.8267 22.446 10.9162 23.0472 11.0554C23.0472 11.0554 23.0573 11.0554 23.0673 11.0653C23.3278 11.125 23.5783 11.1946 23.8288 11.2741C23.9391 11.3039 24.0393 11.3338 24.1395 11.3735H24.1595C24.1595 11.3735 24.1896 11.3835 24.1996 11.3934C24.2497 11.4034 24.2898 11.4232 24.3399 11.4431C24.6104 11.5326 24.871 11.642 25.1215 11.7613C25.1215 11.7613 25.1616 11.7712 25.1716 11.7911C25.2518 11.8209 25.3219 11.8507 25.4021 11.8905C25.4221 11.9005 25.4421 11.9104 25.4622 11.9203C25.4622 11.9203 25.4922 11.9402 25.5123 11.9502C25.5423 11.9601 25.5624 11.97 25.5925 11.9899C25.6426 12.0098 25.6927 12.0396 25.7327 12.0595C25.7528 12.0695 25.7728 12.0794 25.7828 12.0893C25.7929 12.0993 25.8029 12.0993 25.8229 12.1092C25.8229 12.1092 25.8229 12.1192 25.843 12.1192H25.853L25.863 12.1291C25.883 12.149 25.9131 12.1589 25.9331 12.1689L25.9732 12.1987C25.9732 12.1987 25.9832 12.1987 25.9933 12.2086C26.0434 12.2385 26.1035 12.2683 26.1636 12.3081C26.2137 12.3379 26.2638 12.3677 26.3239 12.3975C26.3239 12.3975 26.3239 12.4075 26.334 12.4075C26.334 12.4075 26.3373 12.4108 26.344 12.4174H26.354C26.354 12.4174 26.354 12.4174 26.364 12.4174C26.374 12.4274 26.3841 12.4274 26.3941 12.4373C26.4242 12.4671 26.4642 12.487 26.5043 12.5069C26.6346 12.5964 26.7648 12.6859 26.8951 12.7753C26.9152 12.7753 26.9252 12.7952 26.9352 12.8052C27.0154 12.8549 27.0855 12.9145 27.1556 12.9742C27.1857 12.9841 27.2158 13.004 27.2358 13.0239C27.2458 13.0239 27.2458 13.0239 27.2458 13.0239H27.2559C27.2559 13.0239 27.326 13.0835 27.3561 13.1034C27.3961 13.1432 27.4462 13.173 27.4863 13.2128C27.5164 13.2327 27.5364 13.2525 27.5665 13.2724C27.6066 13.3023 27.6366 13.3321 27.6667 13.3619C27.6667 13.3718 27.6767 13.3719 27.6767 13.3719C27.6767 13.3719 27.6834 13.3818 27.6968 13.4017L27.7068 13.4116C27.7168 13.4017 27.7268 13.4216 27.7268 13.4216C27.7368 13.4216 27.7368 13.4315 27.7368 13.4315H27.7469C27.7469 13.4315 27.837 13.521 27.8771 13.5707C27.8771 13.5607 27.8972 13.5707 27.8972 13.5707C27.9072 13.5707 27.9172 13.5806 27.9172 13.5906C27.9372 13.6005 27.9573 13.6204 27.9673 13.6303H27.9773C28.0375 13.69 28.0876 13.7298 28.1276 13.7894C28.2379 13.8888 28.3481 13.9982 28.4483 14.1075H28.4583C28.5485 14.197 28.6387 14.2964 28.7188 14.3959H28.7289C28.8191 14.4953 28.9092 14.6046 28.9994 14.7041C29.0896 14.8234 29.1898 14.9526 29.29 15.0819C29.4002 15.221 29.5105 15.3801 29.6207 15.5292C29.7309 15.7082 29.8512 15.8772 29.9514 16.0562C29.9514 16.0661 29.9614 16.0661 29.9614 16.0661C29.9714 16.086 29.9714 16.0959 29.9814 16.1059C30.0115 16.1456 30.0416 16.1854 30.0516 16.2252C30.2219 16.5334 30.3822 16.8416 30.5326 17.1597C30.5626 17.2293 30.5927 17.2989 30.6227 17.3685H30.6328C30.6328 17.3685 30.6528 17.4381 30.6628 17.458C30.7029 17.5276 30.733 17.6071 30.753 17.6767C30.753 17.6767 30.773 17.7165 30.773 17.7363C30.8432 17.8855 30.8933 18.0346 30.9334 18.1837C31.0135 18.3925 31.0737 18.6112 31.1338 18.8299C31.234 19.1779 31.3041 19.5458 31.3542 19.9136C31.3943 20.1622 31.4244 20.4206 31.4444 20.6791C31.4745 20.9774 31.4845 21.2856 31.4845 21.5938V21.8225C31.4745 22.1307 31.4544 22.4388 31.4244 22.7371C31.4244 22.747 31.4144 22.747 31.4144 22.747C31.4144 22.7968 31.4144 22.8465 31.4043 22.8962C31.3943 22.9757 31.3843 23.0552 31.3643 23.1248C31.3643 23.2143 31.3542 23.2939 31.3342 23.3833C31.3242 23.4629 31.3142 23.5325 31.2941 23.612C31.2941 23.6219 31.2941 23.6319 31.2841 23.6518V23.6816C31.2841 23.6816 31.2741 23.7214 31.2741 23.7512C31.2641 23.781 31.254 23.8208 31.244 23.8605C31.234 23.9003 31.224 23.9401 31.224 23.9798C31.2039 24.0594 31.1839 24.1389 31.1638 24.2184C31.1538 24.2284 31.1538 24.2383 31.1538 24.2383V24.2582C31.1338 24.3377 31.1137 24.4073 31.0937 24.4769C31.0636 24.5764 31.0336 24.6758 31.0135 24.7652C31.0135 24.7752 31.0135 24.7851 31.0135 24.7951C31.0035 24.815 30.9935 24.8348 30.9935 24.8547C30.9835 24.8846 30.9735 24.9243 30.9634 24.9541C30.9634 24.974 30.9634 24.984 30.9634 24.984C30.9434 25.0138 30.9334 25.0536 30.9234 25.0834C30.9133 25.1232 30.9033 25.153 30.8933 25.1928C30.8532 25.2723 30.8231 25.3618 30.7931 25.4413L30.7831 25.4512C30.7931 25.4612 30.7831 25.4612 30.7831 25.4711C30.7029 25.67 30.6227 25.8688 30.5326 26.0577C30.5125 26.1173 30.4825 26.1671 30.4524 26.2068C30.4624 26.2168 30.4524 26.2168 30.4524 26.2168C30.4624 26.2267 30.4524 26.2267 30.4524 26.2267C30.4424 26.2466 30.4424 26.2665 30.4223 26.2764V26.2963C30.3923 26.3659 30.3622 26.4255 30.3221 26.4852C30.262 26.6045 30.2019 26.7337 30.1317 26.8431C29.9313 27.2209 29.7009 27.5689 29.4503 27.9069C29.2299 28.225 28.9894 28.5233 28.7289 28.8017C27.6867 29.9649 26.3841 30.9093 24.9111 31.5357C24.5704 31.6848 24.2196 31.824 23.8489 31.9333C23.6284 32.0029 23.398 32.0725 23.1675 32.1222C23.0372 32.1521 22.917 32.1819 22.7967 32.2117C22.6564 32.2316 22.5162 32.2614 22.3759 32.2813C22.3157 32.2913 22.2556 32.3012 22.1955 32.3012C22.1354 32.3211 22.0652 32.331 21.9951 32.331C21.965 32.331 21.9249 32.3509 21.8849 32.3509H21.8748C21.7446 32.3708 21.6043 32.3807 21.464 32.3907C21.3337 32.3907 21.2035 32.4106 21.0632 32.4205C20.983 32.4205 20.9129 32.4304 20.8327 32.4304H20.462C20.3918 32.4304 20.3217 32.4304 20.2515 32.4205C20.1112 32.4205 19.9709 32.4106 19.8407 32.4106C19.7705 32.4006 19.7004 32.4006 19.6303 32.3907H19.5902ZM13.2572 31.5357H13.2071V31.4959L12.9666 30.8L12.7762 30.2134C13.3374 30.7105 13.9486 31.1579 14.5899 31.5357H13.2572ZM8.74799 17.7463L9.29912 17.3486L9.88031 16.941C9.57969 17.617 9.3392 18.3329 9.17887 19.0686L8.9484 18.3527L8.74799 17.7463ZM20.0611 9.66353L20.6022 9.27579L21.1233 9.65359L21.7245 10.091C21.3337 10.0513 20.9429 10.0314 20.5421 10.0314C20.1814 10.0314 19.8206 10.0513 19.4699 10.0811L20.0611 9.66353ZM31.244 17.0106L31.8052 17.4182L32.3763 17.8358L32.1559 18.4919L31.9354 19.1481C31.7751 18.4024 31.5446 17.6866 31.244 17.0106ZM12.4957 10.4291C11.4635 9.41498 11.1329 9.30562 10.9926 9.26585C10.5016 9.10678 10.0006 9.03719 9.48951 9.03719C9.56967 8.81847 9.68992 8.60969 9.84023 8.41085L9.87029 8.36114C10.3613 7.7348 11.0527 7.31724 11.8443 7.19794C11.9445 7.17806 12.0548 7.16811 12.175 7.16811C12.0247 7.62544 11.9345 8.11259 11.9345 8.59975C11.9345 8.90794 12.1149 9.5144 12.4957 10.4291ZM4.17864 25.5407C4.20871 25.3518 4.25881 25.1729 4.31893 24.9939C4.70973 25.2723 5.13059 25.5009 5.59153 25.6501C5.7218 25.6898 6.04246 25.7893 7.51547 25.6799C6.66373 26.1173 6.13264 26.4753 5.94225 26.7337C5.59153 27.201 5.35104 27.7279 5.20074 28.2946C5.03039 28.1554 4.87006 27.9864 4.72977 27.7975C4.24879 27.1414 4.0584 26.346 4.17864 25.5407ZM18.7785 38.0277C19.2395 37.7195 19.6403 37.3517 19.971 36.9043C20.1814 36.6259 20.3818 35.9399 20.5622 35.1346C20.8427 36.5166 21.0431 36.7949 21.1233 36.9043C21.4941 37.4113 21.965 37.8388 22.5562 38.1967C22.3057 38.3757 22.0352 38.5149 21.7346 38.6143C20.953 38.8628 20.1213 38.7932 19.3898 38.4254C19.1693 38.316 18.9589 38.1769 18.7785 38.0277ZM32.7471 17.11L30.3722 15.3901C30.1518 15.0321 29.9013 14.6941 29.6307 14.366C29.5706 14.2865 29.5105 14.207 29.4403 14.1374C29.3802 14.0578 29.3101 13.9783 29.2399 13.8988C29.1798 13.8292 29.1096 13.7596 29.0395 13.68C29.0395 13.68 29.0395 13.6701 29.0295 13.6701C28.9493 13.5906 28.8692 13.5011 28.789 13.4216C28.6888 13.3221 28.5786 13.2227 28.4784 13.1233C28.318 12.9841 28.1577 12.835 27.9873 12.7057C29.2199 11.5525 30.3622 10.5981 30.6227 10.5086C31.0937 10.3595 31.5947 10.3197 32.1058 10.3694C32.196 10.3793 32.2761 10.3893 32.3663 10.4092C32.4164 10.4092 32.4665 10.4191 32.5166 10.4291C32.5467 10.4291 32.5767 10.439 32.6068 10.4489C32.687 10.4589 32.7771 10.4788 32.8573 10.4986C32.9375 10.5185 33.0176 10.5484 33.0978 10.5682C33.188 10.5881 33.2681 10.6179 33.3483 10.6478C35.8835 11.473 38.4788 13.859 39.561 14.9228L32.7471 17.11ZM6.26291 29.9251C6.26291 29.8356 6.27293 29.7561 6.27293 29.6666C6.28295 29.6169 6.28295 29.5572 6.29297 29.4976C6.28295 29.4777 6.29297 29.4578 6.29297 29.428C6.30299 29.3385 6.31301 29.259 6.33305 29.1695C6.33305 29.09 6.35309 29.0104 6.37313 28.9309C6.47334 28.394 6.67375 27.8969 6.98438 27.4794C7.16475 27.2706 8.35719 26.6542 9.7801 26.0378C9.89033 26.3062 10.0206 26.5747 10.1509 26.8232C10.211 26.9425 10.2611 27.0419 10.3212 27.1513C10.3413 27.1911 10.3713 27.2408 10.4014 27.2905C10.4214 27.3402 10.4515 27.3899 10.4815 27.4297C10.5316 27.5192 10.5817 27.5987 10.6218 27.6683C10.6819 27.7578 10.7321 27.8373 10.7822 27.9168C10.8323 27.9964 10.8824 28.066 10.9425 28.1455C11.1228 28.404 11.3132 28.6625 11.5136 28.9011L12.3854 31.5953L8.34717 37.1131C7.63572 35.7013 6.30299 32.7088 6.26291 30.1836V29.9251ZM23.7988 37.4014C23.7988 37.4014 23.7086 37.3716 23.6685 37.3417C23.5884 37.3119 23.5082 37.2721 23.438 37.2224C22.927 36.9639 22.4861 36.606 22.1654 36.1686C22.0151 35.9399 21.7446 34.6177 21.5241 33.1164C21.7646 33.1065 22.0051 33.0767 22.2456 33.0468C22.3759 33.027 22.5061 33.0071 22.6264 32.9772C22.7366 32.9574 22.8468 32.9375 22.947 32.9176C22.9771 32.9077 23.0072 32.9077 23.0372 32.8878C23.1174 32.8778 23.1875 32.8679 23.2577 32.8381C23.3579 32.8381 23.4581 32.7983 23.5583 32.7685C23.6485 32.7486 23.7487 32.7188 23.8389 32.6889C24.1896 32.5895 24.5403 32.4702 24.881 32.331H27.6467L31.6949 37.8687C30.1017 38.0973 26.9552 38.3956 24.6004 37.6996C24.5203 37.6698 24.4401 37.6499 24.3699 37.63C24.2798 37.6002 24.1996 37.5704 24.1194 37.5406C24.0393 37.5107 23.9691 37.4809 23.899 37.4511C23.8589 37.4312 23.8288 37.4213 23.7988 37.4014ZM37.1361 23.0354C37.0759 23.105 37.0258 23.1646 36.9757 23.2342H36.9657C36.9657 23.2342 36.8855 23.3336 36.8354 23.3833C36.8254 23.3833 36.8154 23.4032 36.8154 23.4132L36.6451 23.5822L36.4647 23.7611C36.0739 24.0991 35.653 24.3576 35.1821 24.5068C34.9015 24.5664 33.4886 24.3576 31.9454 24.0296C31.9555 23.9898 31.9655 23.95 31.9655 23.9102C32.0056 23.7611 32.0256 23.6219 32.0557 23.4728C32.0757 23.3535 32.0958 23.2243 32.1058 23.105C32.1258 22.9956 32.1358 22.8862 32.1459 22.7868C32.1459 22.747 32.1559 22.7073 32.1559 22.6775C32.1659 22.6079 32.1659 22.5383 32.1659 22.4786C32.1759 22.3792 32.1859 22.2798 32.1859 22.1804C32.206 21.9915 32.206 21.7926 32.206 21.6037C32.206 21.385 32.196 21.1663 32.1859 20.9476L33.1078 18.1837L39.7715 16.0363C39.4708 17.6667 38.7494 20.8382 37.2764 22.8465C37.2262 22.9061 37.1862 22.9757 37.1361 23.0354Z" fill="#BEBEBE"/>
<path d="M21.0324 26.1669C21.2929 26.4055 22.1647 27.1611 22.6657 27.5787L23.3572 28.1652L24.0085 28.722H24.0185C24.2189 28.8711 24.4494 28.9506 24.6899 28.9506H24.7199C24.9705 28.9407 25.221 28.8413 25.4214 28.6723C25.8222 28.3342 25.9825 27.7676 25.8422 27.2307L24.9905 23.7709C24.9404 23.5721 25.0005 23.3335 25.1208 23.2241L28.5277 20.7188C28.9285 20.3807 29.0989 19.814 28.9486 19.2772C28.9285 19.2175 28.9185 19.1678 28.8885 19.1082C28.7281 18.7204 28.3774 18.3327 27.8063 18.3327H23.3872C23.277 18.3327 23.1367 18.2333 23.0666 17.9847L21.6537 14.2068C21.4933 13.6401 21.0424 13.2822 20.5214 13.2822C20.0003 13.2822 19.5393 13.6401 19.379 14.1969L18.0162 18.0245C17.9561 18.2333 17.8258 18.3327 17.7156 18.3327H13.2866C12.7154 18.3327 12.3647 18.7204 12.2043 19.1082C12.1743 19.1678 12.1542 19.2175 12.1442 19.2772C12.0039 19.814 12.1643 20.3807 12.5951 20.7486L16.1624 23.2241C16.2927 23.3235 16.3428 23.5522 16.2827 23.7709L15.2606 27.2207C15.1203 27.7576 15.2806 28.3243 15.6815 28.6623C15.8819 28.8413 16.1224 28.9407 16.3729 28.9506C16.6534 28.9506 16.914 28.8612 17.1444 28.6723L18.417 27.5787C19.0784 27.012 19.8099 26.3856 20.0504 26.1768C20.371 25.8985 20.7418 25.8985 21.0324 26.1669ZM15.6815 27.3301L16.7035 23.8803C16.8037 23.4925 16.7035 23.0949 16.423 22.8761L12.8457 20.3907C12.515 20.1123 12.4949 19.6749 12.5651 19.3865C12.6452 19.0982 12.8857 18.7602 13.2866 18.7602H17.7156C18.0463 18.7602 18.3369 18.5117 18.4371 18.1339L19.7999 14.3261C19.9101 13.9583 20.1907 13.7197 20.5214 13.7197C20.852 13.7197 21.1226 13.9483 21.2428 14.3361L22.6557 18.1339C22.7559 18.5117 23.0465 18.7602 23.3872 18.7602H27.8063C28.2171 18.7602 28.4476 19.0982 28.5277 19.3865C28.6079 19.6749 28.5778 20.1123 28.2472 20.3907L24.8402 22.8861C24.5797 23.1247 24.4694 23.5224 24.5696 23.8902L25.4114 27.3401C25.5216 27.7178 25.4114 28.1056 25.1408 28.3442C25.0506 28.4237 24.9003 28.5132 24.7099 28.5231C24.5496 28.5132 24.3792 28.4635 24.2189 28.3243L22.9463 27.2506C22.4553 26.833 21.5835 26.0874 21.333 25.8488C21.1025 25.64 20.832 25.5306 20.5614 25.5306C20.2909 25.5306 20.0103 25.64 19.7698 25.8488C19.5193 26.0575 18.7978 26.6839 18.1265 27.2506L16.8538 28.3342C16.7136 28.4635 16.5532 28.5132 16.3929 28.5132C16.2426 28.5033 16.0923 28.4436 15.962 28.3342C15.6915 28.1056 15.5812 27.7079 15.6815 27.3301Z" fill="#BEBEBE"/>
</svg>
